<?xml version="1.0" encoding="UTF-8"?>
<svg version="1.1" xmlns="http://www.w3.org/2000/svg" width="512" height="512">
<path d="M0 0 C1.19858643 0.30599121 1.19858643 0.30599121 2.42138672 0.61816406 C30.33046342 7.97985947 54.04129492 21.17419789 75 41 C75.88300781 41.81855469 76.76601563 42.63710938 77.67578125 43.48046875 C103.50853357 68.21706468 120.13011163 104.0205286 125.8125 139.0625 C125.9364917 139.82336914 126.0604834 140.58423828 126.18823242 141.36816406 C126.75701385 145.19580742 127.05755175 148.90298367 127.0300293 152.77514648 C127.02569382 153.57073471 127.02135834 154.36632294 127.01689148 155.1860199 C127.01131729 155.78463333 127.0057431 156.38324677 127 157 C127.74280212 156.99111755 128.48560425 156.98223511 129.25091553 156.9730835 C136.25449905 156.89290256 143.25792335 156.83201814 150.26183701 156.79275131 C153.86258286 156.77188487 157.46294916 156.74358579 161.06347656 156.69824219 C164.53887913 156.65474875 168.01391688 156.63085579 171.48957062 156.62049103 C173.45945784 156.60951385 175.42919847 156.578293 177.39886475 156.54681396 C179.20027924 156.54636078 179.20027924 156.54636078 181.03808594 156.54589844 C182.09509705 156.53701599 183.15210815 156.52813354 184.2411499 156.51898193 C187.80878285 157.14101497 188.79056785 158.15828567 191 161 C191.47230148 163.96167088 191.47230148 163.96167088 191.39520264 167.598526 C191.38080792 168.28840388 191.36641321 168.97828177 191.35158229 169.68906504 C191.00701928 180.96274217 189.76214435 192.2036635 188.67675781 203.42358398 C188.42647951 206.06822211 188.17678538 208.71290974 187.92776489 211.35766602 C187.32336562 217.76135763 186.71075995 224.16423761 186.09491447 230.5668376 C185.59387293 235.77679819 185.09552092 240.98700946 184.59902191 246.19740486 C184.52801741 246.94245163 184.45701291 247.6874984 184.38385676 248.45512234 C184.23955643 249.96926724 184.09525736 251.48341227 183.95095953 252.99755741 C182.60121262 267.15640036 181.24155941 281.31427906 179.87888345 295.47188265 C178.6360006 308.38821365 177.40584801 321.3057201 176.18167058 334.22383618 C174.92048568 347.53118547 173.65050775 360.83766942 172.37121081 374.1432901 C171.65479178 381.59620832 170.9417651 389.04941202 170.23801422 396.50353813 C169.6389213 402.84814802 169.03146116 409.19189131 168.41359094 415.53470116 C168.09937165 418.76265176 167.79004331 421.99093182 167.48858261 425.22010231 C165.18082098 449.89121738 162.53188906 471.94904232 144 490 C143.33742188 490.69480469 142.67484375 491.38960938 141.9921875 492.10546875 C137.53821265 496.4832349 132.70503724 499.48483563 127.1875 502.3125 C126.56029053 502.63814941 125.93308105 502.96379883 125.28686523 503.29931641 C115.60867152 508.00445267 105.67013237 509.44914574 95.0078125 509.38095093 C93.29004105 509.38797089 93.29004105 509.38797089 91.53756714 509.39513266 C87.73325724 509.40701626 83.92931202 509.39765122 80.125 509.38818359 C77.3841071 509.39060319 74.64322927 509.39748804 71.90234375 509.40411377 C65.25039074 509.41740396 58.59853968 509.41459451 51.94658279 509.40587585 C46.53697122 509.39908105 41.12738807 509.39819032 35.71777344 509.4014473 C34.55975755 509.40213684 34.55975755 509.40213684 33.3783474 509.40284032 C31.80967457 509.40379957 30.24100176 509.40477221 28.67232895 509.4057581 C13.98740109 509.41429818 -0.69747045 509.4044996 -15.38238907 509.388357 C-27.96328757 509.37495507 -40.544103 509.37728355 -53.125 509.39111328 C-67.7599321 509.40719357 -82.39481493 509.41347434 -97.02975464 509.40427649 C-98.59242756 509.40332091 -100.1551005 509.4023778 -101.71777344 509.4014473 C-102.48649591 509.40098447 -103.25521839 509.40052164 -104.04723549 509.40004479 C-109.44589045 509.39746224 -114.84451397 509.40180999 -120.24316406 509.40888596 C-126.82871028 509.41732843 -133.41414933 509.4149634 -139.99968338 509.39904372 C-143.35519621 509.39119765 -146.71038421 509.38964041 -150.06591797 509.39799118 C-153.71339204 509.4062295 -157.36036976 509.39585681 -161.0078125 509.38095093 C-162.57730148 509.39098918 -162.57730148 509.39098918 -164.17849731 509.40123022 C-174.33313283 509.3211347 -183.93708796 507.12163425 -193 502.5 C-193.6707959 502.16105713 -194.3415918 501.82211426 -195.03271484 501.47290039 C-202.06581626 497.72553684 -207.51683104 492.715945 -213 487 C-213.61359375 486.38253906 -214.2271875 485.76507813 -214.859375 485.12890625 C-219.27067791 480.38789255 -222.14379043 474.76905786 -225 469 C-225.38285156 468.27683594 -225.76570313 467.55367188 -226.16015625 466.80859375 C-228.74395891 461.31678505 -229.62840738 455.73247385 -230.44856262 449.77900696 C-230.57676795 448.86171131 -230.70497327 447.94441567 -230.83706361 446.99932319 C-232.42059137 435.33649543 -233.51961809 423.625791 -234.63549805 411.91088867 C-234.88184994 409.36231754 -235.12860661 406.81378551 -235.37573242 404.26528931 C-235.97072576 398.11695209 -236.56118574 391.96819516 -237.14917954 385.81918504 C-237.62762886 380.81633704 -238.10781501 375.81365857 -238.5891819 370.81109047 C-238.65815946 370.09418604 -238.72713702 369.37728161 -238.79820481 368.63865281 C-238.93840447 367.18151965 -239.07860488 365.72438657 -239.21880601 364.26725356 C-240.52706248 350.66758517 -241.82895786 337.06731346 -243.12889151 323.4668474 C-244.31500626 311.05937109 -245.50935687 298.65270356 -246.70754173 286.24638756 C-247.94288926 273.45445874 -249.17255152 260.66199479 -250.39618713 247.86894017 C-251.08125987 240.70760349 -251.76852343 233.54649409 -252.46179771 226.38594627 C-253.1132446 219.65674217 -253.75666417 212.92681601 -254.39484406 206.19633865 C-254.62924454 203.73718754 -254.8661976 201.27827809 -255.10598946 198.81964684 C-257.18427465 177.48326871 -257.18427465 177.48326871 -257.39045715 167.65986633 C-257.4165849 166.45084813 -257.44271265 165.24182993 -257.46963215 163.99617481 C-256.89937511 160.35802998 -255.91181113 159.18765879 -253 157 C-250.2411499 156.51898193 -250.2411499 156.51898193 -247.03808594 156.54589844 C-245.83714294 156.54620056 -244.63619995 156.54650269 -243.39886475 156.54681396 C-242.10708313 156.56745911 -240.81530151 156.58810425 -239.484375 156.609375 C-238.14488571 156.61683929 -236.80538548 156.62253134 -235.46588135 156.62652588 C-231.94748564 156.64176787 -228.42975485 156.68103582 -224.91162109 156.7253418 C-221.31877639 156.76632636 -217.7258238 156.7845436 -214.1328125 156.8046875 C-207.08827034 156.84753255 -200.04417868 156.91576554 -193 157 C-193.00516632 156.40016296 -193.01033264 155.80032593 -193.01565552 155.18231201 C-193.01967377 154.38577209 -193.02369202 153.58923218 -193.02783203 152.76855469 C-193.03299835 151.98309265 -193.03816467 151.19763062 -193.04348755 150.3883667 C-192.32892745 111.14422482 -170.67281104 71.63781868 -144 44 C-143.22269531 43.15953125 -142.44539063 42.3190625 -141.64453125 41.453125 C-121.3179234 20.07103165 -94.18520543 7.33905185 -66 0 C-64.98728027 -0.27118652 -64.98728027 -0.27118652 -63.95410156 -0.54785156 C-44.21557331 -5.61081929 -19.67938784 -5.02852953 0 0 Z " fill="#262525" transform="translate(289,3)"/>
<path d="M0 0 C7.07286691 -0.50860906 14.13080243 -0.79934528 21.22265625 -0.67578125 C22.97461304 -0.65124878 22.97461304 -0.65124878 24.76196289 -0.6262207 C28.81103675 0.15685058 30.54027996 1.68525792 33.375 4.625 C34.5866475 6.74811205 35.79469359 8.87328166 37 11 C39.06982087 13.47674483 41.32363336 15.73902456 43.625 18 C44.22111084 18.59208252 44.81722168 19.18416504 45.43139648 19.79418945 C51.76003271 25.94892958 58.6553763 31.12468944 66 36 C66.59361328 36.39525879 67.18722656 36.79051758 67.79882812 37.19775391 C102.68953661 60.05289144 148.39412539 69.36901175 189.5078125 61.03515625 C191.00694605 60.69773392 192.50428114 60.35225034 194 60 C195.29309082 59.70198486 195.29309082 59.70198486 196.61230469 59.39794922 C206.95287939 56.95118083 216.93171064 53.8887089 226.75 49.8125 C227.554375 49.47968018 228.35875 49.14686035 229.1875 48.80395508 C233.8031715 46.85598252 233.8031715 46.85598252 237 43 C237.5 39.5 237.5 39.5 237 36 C235.48105194 33.90235835 235.48105194 33.90235835 233 33 C228.19542498 32.59961875 225.18779955 33.55867098 220.875 35.625 C184.86873055 51.93720553 141.74989272 52.82436517 104.78515625 39.18261719 C83.46322676 30.89406452 62.40268105 18.00335131 48 0 C137.1 0 226.2 0 318 0 C318 7.43752506 317.92919788 14.47330364 317.17382812 21.80761719 C317.04215492 23.1562384 317.04215492 23.1562384 316.90782166 24.53210449 C316.62115074 27.45427014 316.3262924 30.37554383 316.03125 33.296875 C315.8289572 35.34233645 315.62718347 37.3878493 315.42590332 39.43341064 C314.89841352 44.78002308 314.36393974 50.12591439 313.82794189 55.47167969 C313.28076313 60.94163426 312.74028432 66.41225047 312.19921875 71.8828125 C311.13931913 82.58919471 310.07203026 93.2948261 309 104 C307.38983568 104.00219984 307.38983568 104.00219984 305.74714279 104.00444412 C279.65021679 104.04100903 253.55341943 104.100419 227.45660019 104.18390274 C214.8364617 104.22374348 202.21638603 104.25611037 189.59619141 104.27099609 C178.59880295 104.28398652 167.60155241 104.31088432 156.60424161 104.35461307 C150.7790763 104.3772866 144.95408146 104.39290715 139.1288681 104.39188385 C133.64919775 104.39114072 128.16990509 104.40895166 122.69033241 104.44116783 C120.67633345 104.44970642 118.66229232 104.45139011 116.648283 104.44580269 C113.90356491 104.43920072 111.16006196 104.45699148 108.41546631 104.48101807 C107.21313107 104.46937744 107.21313107 104.46937744 105.98650622 104.45750165 C102.39944724 104.51329448 100.39010217 104.70406957 97.49136734 106.90304184 C95.76661977 109.32814758 95.5837507 110.23049271 96.0625 113.125 C96.58843942 117.21549524 96.58843942 117.21549524 100 119 C102.77257835 119.20145256 105.44577971 119.28520828 108.21928406 119.2784729 C109.06714267 119.2842653 109.91500128 119.2900577 110.78855258 119.29602563 C113.63991628 119.31308018 116.49111865 119.31590682 119.3425293 119.31884766 C121.3823588 119.32814207 123.42218448 119.33831001 125.46200562 119.34928894 C131.0091636 119.37665789 136.55629609 119.39175875 142.10350394 119.40471697 C147.89714222 119.42031739 153.6907282 119.44711741 159.48432922 119.4727478 C170.45961797 119.51959039 181.43491649 119.55630795 192.4102543 119.58942068 C204.90346791 119.62760339 217.39662907 119.6770236 229.88979852 119.72740483 C255.59316017 119.83080618 281.2965555 119.92003986 307 120 C306.84444501 122.36584341 306.68829518 124.73164514 306.53181458 127.09742737 C306.4883844 127.75888716 306.44495423 128.42034696 306.400208 129.10185099 C305.7535228 138.85937907 304.88687038 148.59727308 304.00805664 158.33618164 C303.7932869 160.74902884 303.58501569 163.16246279 303.38305664 165.57641602 C303.08730387 169.10328565 302.77047362 172.62771667 302.44921875 176.15234375 C302.36363205 177.22330795 302.27804535 178.29427216 302.18986511 179.39768982 C301.5132052 186.48898272 300.3607791 192.84290448 294.9375 197.9375 C291.7273209 199.6979208 289.13294253 200.12613365 285.54024792 200.13422108 C284.62184193 200.13867892 283.70343594 200.14313676 282.75719947 200.14772969 C281.74671131 200.14754533 280.73622315 200.14736097 279.69511414 200.14717102 C278.62280999 200.15084771 277.55050583 200.1545244 276.44570762 200.1583125 C272.83448715 200.16936995 269.22329543 200.17319665 265.61206055 200.17700195 C263.03025216 200.18326495 260.44844467 200.18991161 257.86663818 200.19691467 C250.10658188 200.21667491 242.34652429 200.22674409 234.58644912 200.23564246 C230.93267575 200.24002551 227.27890383 200.24539223 223.62513161 200.25063133 C211.48064188 200.2676421 199.33615306 200.28213701 187.19165325 200.28938007 C184.0402851 200.29128998 180.88891695 200.29321031 177.73754883 200.29516602 C176.95428751 200.29564976 176.17102619 200.2961335 175.36402968 200.2966319 C162.67120401 200.30493505 149.97847249 200.33027741 137.28568795 200.36274669 C124.25651912 200.39580502 111.22739817 200.41382766 98.19818717 200.41702431 C90.8818028 200.4191904 83.56555579 200.42795352 76.24921227 200.45348549 C69.36851733 200.47744171 62.48807358 200.4810259 55.60734558 200.47072411 C53.07975251 200.47022706 50.55214753 200.47659687 48.02459145 200.49028015 C44.57804032 200.507897 41.13238757 200.50094241 37.68583679 200.48774719 C36.6820408 200.49871644 35.6782448 200.50968568 34.64403075 200.52098733 C28.7745202 200.46661025 25.50155559 199.85516735 21 196 C15.86258714 189.97263191 15.9370504 181.36922478 15.296875 173.8671875 C15.16939288 172.50281565 15.04056429 171.13856902 14.91046143 169.77444458 C14.57390105 166.20402412 14.2570382 162.63211624 13.94396973 159.05957031 C13.68551001 156.14868604 13.41295488 153.23920287 13.13965988 150.32967949 C12.57401298 144.30303441 12.01937095 138.27530666 11.48730469 132.24560547 C11.39278015 131.18163544 11.29825562 130.11766541 11.2008667 129.02145386 C11.0002964 126.0044585 10.96472313 123.02267604 11 120 C11.66763367 119.99191315 12.33526733 119.98382629 13.02313232 119.97549438 C19.96613759 119.8894985 26.90885571 119.78999678 33.8515625 119.68261719 C36.44331036 119.6443123 39.03511166 119.60946213 41.62695312 119.578125 C45.35045483 119.53250783 49.07358815 119.4745069 52.796875 119.4140625 C53.95741394 119.40251129 55.11795288 119.39096008 56.31365967 119.37905884 C57.39447815 119.35918915 58.47529663 119.33931946 59.58886719 119.31884766 C61.01449982 119.29886215 61.01449982 119.29886215 62.46893311 119.2784729 C65.11528278 118.98731636 66.76830363 118.43394264 69 117 C69.77105754 115.15627965 69.77105754 115.15627965 69.875 113.0625 C69.95492187 112.37285156 70.03484375 111.68320312 70.1171875 110.97265625 C70.14705795 108.67417282 70.14705795 108.67417282 68 106 C64.92781664 104.97593888 62.73987825 104.8453464 59.51879883 104.79467773 C58.39786331 104.77473251 57.2769278 104.75478729 56.12202454 104.73423767 C54.91257675 104.71752518 53.70312897 104.70081268 52.45703125 104.68359375 C51.21829758 104.66281265 49.9795639 104.64203156 48.70329285 104.62062073 C45.41374744 104.56628203 42.12417274 104.51604049 38.83453369 104.46777344 C35.47622186 104.41749354 32.11799954 104.36184139 28.75976562 104.30664062 C22.17324841 104.19946952 15.58666416 104.09769865 9 104 C6.66618549 81.02768594 4.41453413 58.04974212 2.30761719 35.05541992 C2.22728745 34.18144562 2.1469577 33.30747131 2.06419373 32.40701294 C1.91564342 30.78939142 1.76783652 29.17170136 1.62098694 27.55392456 C1.27768618 23.81394392 0.89522794 20.08475639 0.4519043 16.35522461 C0.0389453 12.70038993 -0.10481912 9.11926362 -0.0625 5.4375 C-0.05347656 4.40496094 -0.04445313 3.37242187 -0.03515625 2.30859375 C-0.02355469 1.54675781 -0.01195313 0.78492188 0 0 Z " fill="#8D6650" transform="translate(97,256)"/>
<path d="M0 0 C15.84 0 31.68 0 48 0 C48.66 5.94 49.32 11.88 50 18 C50.91767275 24.98843092 52.28990409 31.43731797 54.4375 38.125 C54.64286377 38.77750732 54.84822754 39.43001465 55.05981445 40.10229492 C56.26286468 43.65682571 56.77581919 44.85054612 60 47 C63.61550392 47.46155369 65.33636094 47.45406883 68.375 45.375 C70.47256454 42.30932875 70.24612791 40.67401847 70 37 C69.46591121 35.08324479 68.85562374 33.18674973 68.1875 31.3125 C66.33262658 25.58945639 65.17316265 19.94275275 64.25 14 C64.12262451 13.18700439 63.99524902 12.37400879 63.86401367 11.53637695 C63.27736526 7.58112513 63 4.04052961 63 0 C157.71 0 252.42 0 350 0 C350 13.10277066 347.81176559 24.03655915 343.875 36.375 C343.50556274 37.57552002 343.50556274 37.57552002 343.12866211 38.80029297 C341.12266909 44.82124387 338.35106937 50.28454295 335.35595703 55.85791016 C334.72766747 57.03538567 334.72766747 57.03538567 334.08668518 58.23664856 C333.06038128 60.15915121 332.03054662 62.07976829 331 64 C330.37730783 64.00097681 329.75461566 64.00195362 329.11305404 64.00296003 C292.22882162 64.06119872 255.34465079 64.13497015 218.46049158 64.22898628 C214.03437097 64.2402548 209.60825005 64.2513932 205.18212891 64.26245117 C204.30094679 64.26465486 203.41976467 64.26685854 202.51188007 64.269129 C188.23326785 64.30452682 173.95465569 64.32937691 159.67601582 64.35034702 C145.0310006 64.3720893 130.38604245 64.4051247 115.74107575 64.44870156 C106.70020941 64.47524544 97.65941421 64.49292063 88.61851081 64.49934604 C82.42360037 64.50459158 76.22877955 64.52078033 70.0339171 64.54566566 C66.45675713 64.55970942 62.8797577 64.56884082 59.30256844 64.56500816 C55.42837769 64.56098304 51.55449768 64.57995691 47.68035889 64.60127258 C45.97609131 64.59400122 45.97609131 64.59400122 44.23739409 64.58658296 C42.68404526 64.60076777 42.68404526 64.60076777 41.09931564 64.61523914 C39.757384 64.61808705 39.757384 64.61808705 38.38834262 64.62099248 C35.48273493 65.0820851 34.10146724 65.96305786 32 68 C30.79981475 75.56726972 32.00065054 83.6870023 32.85595703 91.28051758 C33.71816193 99.21124555 34.51019897 107.14697888 35.26513672 115.08862305 C35.37714983 116.26676984 35.48916294 117.44491663 35.60457039 118.65876484 C35.84056489 121.14612713 36.07621553 123.63352207 36.31155014 126.12094688 C36.68992632 130.11993085 37.06953739 134.11879593 37.44949341 138.11763 C38.32677579 147.35290757 39.20218513 156.58836248 40.07746887 165.82382965 C41.93055794 185.37630948 43.78892313 204.9282601 45.66288757 224.47875214 C45.98445713 227.83764976 46.30471163 231.19667023 46.62463379 234.5557251 C47.08085028 239.34009096 47.54273745 244.12387099 48.00995255 248.90717506 C48.17207601 250.57501816 48.33235602 252.24304175 48.49056625 253.9112606 C49.8235549 273.26103852 49.8235549 273.26103852 60.21875 288.89453125 C62.43653429 290.41371349 64.61037967 291.76986501 67 293 C67.64968404 293.348332 68.29936808 293.69666401 68.96873951 294.05555153 C73.53933673 295.47961045 77.98571363 295.28180638 82.7462616 295.26742554 C83.84195365 295.27195665 84.9376457 295.27648776 86.06654054 295.28115618 C89.74516797 295.29383598 93.42364803 295.29217747 97.10229492 295.29052734 C99.73702547 295.29651043 102.37174441 295.30325875 105.00646973 295.31088257 C111.42540213 295.32749018 117.8442978 295.33299204 124.2632499 295.33410732 C129.48282552 295.33505811 134.70238904 295.33916992 139.92196083 295.34550858 C154.72756474 295.36312192 169.53313967 295.37234754 184.33875414 295.37084763 C185.53582548 295.37072776 185.53582548 295.37072776 186.75708008 295.37060547 C187.55610484 295.37052371 188.3551296 295.37044195 189.17836723 295.37035771 C202.120563 295.36954524 215.06264226 295.38867282 228.00480434 295.4168822 C241.30074512 295.4456334 254.59662914 295.4594212 267.89260179 295.45769465 C275.35439206 295.45703142 282.81606027 295.46249395 290.27782249 295.48405075 C296.63267784 295.50229224 302.98735582 295.50658582 309.34222605 295.4930319 C312.58204379 295.48651646 315.82145215 295.4885206 319.06125069 295.5037384 C322.58074265 295.51919687 326.09934704 295.50987737 329.61882019 295.49447632 C331.14000931 295.50990701 331.14000931 295.50990701 332.69192952 295.52564943 C340.92429327 295.44626892 347.43970412 293.35113879 354.3125 288.8125 C362.9076171 279.81761001 364.19264568 268.94053644 365.296875 257.04223633 C365.41099731 255.86535751 365.52511963 254.6884787 365.6427002 253.47593689 C365.95289027 250.26475874 366.25769625 247.05312537 366.56007385 243.84120393 C366.88038853 240.45268948 367.20767602 237.06484833 367.53417969 233.67692566 C368.15285603 227.24633964 368.7653255 220.81517832 369.3755455 214.38378495 C370.06265949 207.14513406 370.75666457 199.90714948 371.45128632 192.6692158 C372.9759288 176.78027586 374.48958486 160.89029861 376 145 C378.03449678 123.59865131 378.03449678 123.59865131 378.8364563 115.39819336 C379.18225719 111.85200819 379.52113529 108.30516767 379.85986328 104.75830078 C380.03801816 102.90489948 380.21839093 101.05171015 380.40087891 99.19873047 C382.60813566 83.5675771 382.60813566 83.5675771 382 68 C379.73513076 65.44969235 378.26678382 65.03701615 374.88378906 64.56762695 C373.68979492 64.54144287 372.49580078 64.51525879 371.265625 64.48828125 C369.97011719 64.45283203 368.67460937 64.41738281 367.33984375 64.38085938 C365.97656774 64.35776133 364.61328636 64.33497886 363.25 64.3125 C361.87106138 64.27931352 360.4921535 64.24482262 359.11328125 64.20898438 C355.74226941 64.12647709 352.37151872 64.05733229 349 64 C349.28198242 63.31599121 349.56396484 62.63198242 349.85449219 61.92724609 C358.45435215 40.98401628 364.37097871 22.80629812 366 0 C381.84 0 397.68 0 414 0 C414 10.12266858 414 10.12266858 413.65698242 13.49981689 C413.58071121 14.27453716 413.50444 15.04925743 413.42585754 15.84745407 C413.34075424 16.66768681 413.25565094 17.48791954 413.16796875 18.33300781 C412.98223624 20.20072201 412.79652782 22.0684386 412.61083984 23.93615723 C412.51123962 24.92185196 412.4116394 25.90754669 412.309021 26.92311096 C411.88401456 31.15485466 411.47553251 35.38813987 411.06656361 39.62145901 C410.72813356 43.12356395 410.3877206 46.62547139 410.04679871 50.12733459 C409.5401804 55.33208255 409.03388559 60.53686179 408.5280304 65.74168396 C408.46135558 66.42769989 408.39468076 67.11371581 408.32598549 67.8205201 C408.18930448 69.22684797 408.0526251 70.63317599 407.91594732 72.03950417 C407.56506136 75.64982364 407.21412906 79.2601386 406.8631897 82.87045288 C406.75701361 83.96276827 406.75701361 83.96276827 406.64869255 85.07715064 C406.21513634 89.53732169 405.78143925 93.99747902 405.34766167 98.45762855 C404.39086393 108.2958676 403.43499534 118.13419657 402.48046875 127.97265625 C402.37031232 129.10805355 402.37031232 129.10805355 402.25793052 130.26638818 C400.13899343 152.11108803 398.04824475 173.95825163 395.98828125 195.80859375 C395.75555838 198.2734306 395.5228013 200.73826423 395.29000854 203.20309448 C394.31314546 213.55102601 393.33844551 223.89913532 392.37502766 234.24832821 C391.98595291 238.41821599 391.59310718 242.5877426 391.19933128 246.7571888 C391.0203809 248.6613567 390.84310864 250.56568325 390.66771889 252.47018242 C387.57647771 286.02204202 387.57647771 286.02204202 377 300 C376.54882812 300.61617188 376.09765625 301.23234375 375.6328125 301.8671875 C367.53986814 312.15482863 355.5739189 317.31118764 343 320 C341.4330948 320.08981187 339.86287881 320.12903687 338.29340363 320.13142776 C337.34535622 320.13526891 336.39730882 320.13911005 335.4205327 320.1430676 C333.862781 320.14176787 333.862781 320.14176787 332.27355957 320.14044189 C331.16788242 320.14341302 330.06220527 320.14638414 328.92302275 320.1494453 C325.20453361 320.15814205 321.48607663 320.15964139 317.76757812 320.16113281 C315.1066879 320.16576039 312.44580062 320.17076439 309.78491211 320.17617798 C302.5449064 320.18975793 295.30490623 320.19578599 288.06488991 320.20018864 C283.54134123 320.20295261 279.01779468 320.20719034 274.49424744 320.21169281 C261.96284367 320.22388689 249.43144161 320.23418472 236.90003204 320.2375679 C236.09800101 320.23778747 235.29596998 320.23800703 234.46963498 320.23823325 C233.66570704 320.23845153 232.8617791 320.23866981 232.0334897 320.2388947 C230.40448793 320.23933816 228.77548615 320.23978473 227.14648438 320.24023438 C225.93442814 320.24056652 225.93442814 320.24056652 224.69788593 320.24090537 C211.61797167 320.24484956 198.53811325 320.26229137 185.45822054 320.2855939 C172.01992628 320.30934097 158.58165998 320.32177134 145.1433444 320.32293582 C137.60212889 320.32385089 130.06098607 320.32956052 122.51979065 320.34775543 C116.09509391 320.36320203 109.67049232 320.36825026 103.24578053 320.36001733 C99.97135326 320.35612636 96.69715615 320.35861573 93.42274475 320.37107468 C89.86243688 320.38382335 86.3026146 320.37790093 82.74230957 320.36749268 C81.72165421 320.37554908 80.70099885 320.38360548 79.64941454 320.39190602 C64.67479202 320.29005911 51.81384994 315.16874412 40.80859375 304.94140625 C31.81529779 295.28769546 26.52469535 283.6150448 25.16699219 270.50878906 C25.06596569 269.55332561 25.06596569 269.55332561 24.96289825 268.57855988 C24.73408642 266.39156088 24.51527438 264.20368701 24.296875 262.015625 C24.12866646 260.37394318 23.96026158 258.73228148 23.79168701 257.09063721 C21.0117642 229.78115285 18.50708282 202.44264275 15.94140232 175.11237425 C14.54473104 160.23586782 13.1428695 145.35984942 11.73954821 130.48396897 C11.58510164 128.84668425 11.43068236 127.20939695 11.27629042 125.57210708 C9.32102904 104.83753277 7.3458026 84.10524306 5.3046875 63.37890625 C5.15812714 61.88900618 5.15812714 61.88900618 5.00860596 60.36900711 C4.13772801 51.51940921 3.26253864 42.67027118 2.37325096 33.82250309 C2.0682784 30.78129291 1.76654494 27.73976706 1.46551895 24.69816399 C1.26772685 22.71279794 1.06512712 20.72791259 0.86227417 18.74305725 C0.74675201 17.57399338 0.63122986 16.4049295 0.51220703 15.20043945 C0.41231476 14.21010208 0.31242249 13.21976471 0.20950317 12.19941711 C-0.05624635 8.1410367 0 4.06707197 0 0 Z " fill="#E4E4E4" transform="translate(49,176)"/>
<path d="M0 0 C7.92 0 15.84 0 24 0 C24.99 1.98 25.98 3.96 27 6 C30.17737888 7.58868944 33.60891037 7.15394912 37.09902954 7.15821838 C37.94603373 7.16315636 38.79303792 7.16809434 39.6657089 7.17318195 C42.52013851 7.18861011 45.37454555 7.19693192 48.22900391 7.20532227 C50.26868388 7.21489661 52.30836186 7.22490643 54.34803772 7.23532104 C59.89938236 7.26242421 65.45073556 7.28340442 71.00211 7.30332303 C76.79840953 7.32514928 82.59468254 7.35255437 88.39096069 7.37937927 C99.37337106 7.42935172 110.35579611 7.47427363 121.33823526 7.51740164 C133.83866591 7.56673517 146.33906997 7.62166767 158.83947492 7.67708123 C184.55962515 7.79097114 210.27980087 7.89779487 236 8 C235.84444501 10.36584341 235.68829518 12.73164514 235.53181458 15.09742737 C235.4883844 15.75888716 235.44495423 16.42034696 235.400208 17.10185099 C234.7535228 26.85937907 233.88687038 36.59727308 233.00805664 46.33618164 C232.7932869 48.74902884 232.58501569 51.16246279 232.38305664 53.57641602 C232.08730387 57.10328565 231.77047362 60.62771667 231.44921875 64.15234375 C231.36363205 65.22330795 231.27804535 66.29427216 231.18986511 67.39768982 C230.5132052 74.48898272 229.3607791 80.84290448 223.9375 85.9375 C220.7273209 87.6979208 218.13294253 88.12613365 214.54024792 88.13422108 C213.62184193 88.13867892 212.70343594 88.14313676 211.75719947 88.14772969 C210.74671131 88.14754533 209.73622315 88.14736097 208.69511414 88.14717102 C207.62280999 88.15084771 206.55050583 88.1545244 205.44570762 88.1583125 C201.83448715 88.16936995 198.22329543 88.17319665 194.61206055 88.17700195 C192.03025216 88.18326495 189.44844467 88.18991161 186.86663818 88.19691467 C179.10658188 88.21667491 171.34652429 88.22674409 163.58644912 88.23564246 C159.93267575 88.24002551 156.27890383 88.24539223 152.62513161 88.25063133 C140.48064188 88.2676421 128.33615306 88.28213701 116.19165325 88.28938007 C113.0402851 88.29128998 109.88891695 88.29321031 106.73754883 88.29516602 C105.56265685 88.29589163 105.56265685 88.29589163 104.36402968 88.2966319 C91.67120401 88.30493505 78.97847249 88.33027741 66.28568795 88.36274669 C53.25651912 88.39580502 40.22739817 88.41382766 27.19818717 88.41702431 C19.8818028 88.4191904 12.56555579 88.42795352 5.24921227 88.45348549 C-1.63148267 88.47744171 -8.51192642 88.4810259 -15.39265442 88.47072411 C-17.92024749 88.47022706 -20.44785247 88.47659687 -22.97540855 88.49028015 C-26.42195968 88.507897 -29.86761243 88.50094241 -33.31416321 88.48774719 C-34.3179592 88.49871644 -35.3217552 88.50968568 -36.35596925 88.52098733 C-42.2254798 88.46661025 -45.49844441 87.85516735 -50 84 C-55.13741286 77.97263191 -55.0629496 69.36922478 -55.703125 61.8671875 C-55.83060712 60.50281565 -55.95943571 59.13856902 -56.08953857 57.77444458 C-56.42609895 54.20402412 -56.7429618 50.63211624 -57.05603027 47.05957031 C-57.31448999 44.14868604 -57.58704512 41.23920287 -57.86034012 38.32967949 C-58.42598702 32.30303441 -58.98062905 26.27530666 -59.51269531 20.24560547 C-59.65448212 18.64965042 -59.65448212 18.64965042 -59.7991333 17.02145386 C-59.9997036 14.0044585 -60.03527687 11.02267604 -60 8 C-59.33236633 7.99191315 -58.66473267 7.98382629 -57.97686768 7.97549438 C-51.03386241 7.8894985 -44.09114429 7.78999678 -37.1484375 7.68261719 C-34.55668964 7.6443123 -31.96488834 7.60946213 -29.37304688 7.578125 C-25.64954517 7.53250783 -21.92641185 7.4745069 -18.203125 7.4140625 C-17.04258606 7.40251129 -15.88204712 7.39096008 -14.68634033 7.37905884 C-13.60552185 7.35918915 -12.52470337 7.33931946 -11.41113281 7.31884766 C-10.46071106 7.30552399 -9.51028931 7.29220032 -8.53106689 7.2784729 C-5.7918607 6.97710011 -4.2343749 6.61634413 -2 5 C-1.34 3.35 -0.68 1.7 0 0 Z " fill="#D5B48D" transform="translate(168,368)"/>
<path d="M0 0 C94.71 0 189.42 0 287 0 C287 13.10277066 284.81176559 24.03655915 280.875 36.375 C280.50556274 37.57552002 280.50556274 37.57552002 280.12866211 38.80029297 C277.08099261 47.94781654 272.68368457 55.15304026 268 64 C183.19 64 98.38 64 11 64 C3 49 3 49 3 47 C3.66 46.4225 4.32 45.845 5 45.25 C7.2667504 43.15169755 7.2667504 43.15169755 7.23828125 40.21484375 C6.99394083 36.9182509 6.29456904 34.41809817 5.1875 31.3125 C3.33262658 25.58945639 2.17316265 19.94275275 1.25 14 C1.12262451 13.18700439 0.99524902 12.37400879 0.86401367 11.53637695 C0.27736526 7.58112513 0 4.04052961 0 0 Z " fill="#D5B48D" transform="translate(112,176)"/>
<path d="M0 0 C5.62509221 3.18529318 10.54200867 7.53834458 13.23046875 13.4921875 C14.19918226 17.0282565 14.4452281 20.58753225 14.7578125 24.2265625 C15.68828961 34.93409832 19.75468699 43.97422715 26.9453125 52.1015625 C35.92727193 59.42895046 44.3861313 62.2024369 55.9453125 61.1015625 C66.80413256 59.02662873 74.94757547 52.26003732 81.12890625 43.40625 C83.79248854 38.8986492 84.29915684 34.72507229 84.8203125 29.5390625 C85.56908618 22.71160793 86.79206996 19.61064972 91.9453125 15.1015625 C95.1956526 13.47639245 98.68942911 13.66725004 102.2578125 13.5390625 C103.39766602 13.4452832 103.39766602 13.4452832 104.56054688 13.34960938 C106.91662397 13.28205895 108.7016668 13.36712063 110.9453125 14.1015625 C113.28348269 16.44049518 114.55183965 19.12826042 115.9453125 22.1015625 C116.5185022 23.20528198 116.5185022 23.20528198 117.10327148 24.33129883 C118.28648511 26.63014949 119.40591257 28.95021417 120.5078125 31.2890625 C120.89984863 32.12058838 121.29188477 32.95211426 121.69580078 33.80883789 C124.75175159 40.42367411 127.12441806 47.03981959 128.9453125 54.1015625 C129.23019531 55.12765625 129.51507813 56.15375 129.80859375 57.2109375 C132.43649697 67.02509739 132.9453125 75.85378616 132.9453125 86.1015625 C38.5653125 86.1015625 -55.8146875 86.1015625 -153.0546875 86.1015625 C-153.0546875 64.7480284 -147.27949138 30.32636638 -131.0546875 14.1015625 C-128.45686781 13.94735403 -125.90393464 13.86986706 -123.3046875 13.8515625 C-122.58796875 13.8309375 -121.87125 13.8103125 -121.1328125 13.7890625 C-116.53657569 13.75526664 -113.65429538 14.20677295 -110.0546875 17.1015625 C-106.15108606 20.9781494 -105.5526657 23.81272735 -105.1796875 29.2265625 C-104.20810167 38.99739364 -100.28058899 46.90312148 -93.05078125 53.6015625 C-84.01884245 60.38877287 -75.1367536 61.97275382 -64.0546875 61.1015625 C-54.83411288 59.14367865 -47.78316338 53.03884951 -42.19921875 45.64453125 C-37.42441071 38.15810383 -35.12772866 30.8111443 -34.6171875 21.9765625 C-33.95413281 12.54913031 -30.39984529 7.90203069 -23.37109375 1.765625 C-16.42365906 -3.22528087 -7.75505918 -3.35947908 0 0 Z " fill="#E4D8BC" transform="translate(266.0546875,73.8984375)"/>
<path d="M0 0 C1.03769531 0.19335938 2.07539063 0.38671875 3.14453125 0.5859375 C31.96251181 6.79288716 63.8406672 25.62289534 80.4609375 50.48046875 C80.96882812 51.31191406 81.47671875 52.14335938 82 53 C80.83984375 53.14695312 80.83984375 53.14695312 79.65625 53.296875 C70.25496028 54.64656511 63.2377557 56.45157283 57.25 64.1640625 C53.9663655 68.98690068 52.89708393 73.13615827 52.5625 78.875 C52.10319421 85.9324101 50.52415818 92.06266952 45.125 96.9375 C39.7920331 100.45725815 34.41215385 102.13297455 28 101 C21.22451897 98.37641148 17.26138659 93.32542812 14 87 C12.37558248 82.89805361 11.63811099 78.97015679 11.06396484 74.63037109 C9.45227754 62.73195801 6.10457353 53.59246154 -3.4296875 45.72265625 C-13.32464202 39.09093141 -24.25355455 36.84115785 -36 38 C-47.02265322 41.08847288 -56.0960812 47.13226037 -62 57 C-65.56485954 63.61622131 -67.31264876 69.84425271 -68.0625 77.25 C-68.88811422 85.40305975 -70.31399255 90.81156717 -76.5 96.375 C-81.09708565 100.11535605 -84.71534055 101.46801735 -90.625 101.3125 C-95.99247276 100.60625358 -100.27283547 98.12740503 -103.875 94.125 C-107.21648887 89.21104578 -108.18268032 84.46026586 -108.875 78.625 C-110.0913801 70.46318238 -112.28024849 64.53251359 -118.875 59.31640625 C-124.59152295 55.77510435 -131.33412875 53.72063473 -138 53 C-115.76299751 21.76674278 -81.657286 3.97511369 -44.5234375 -2.6171875 C-29.53894555 -4.24521434 -14.71525738 -2.96687308 0 0 Z " fill="#8D6650" transform="translate(284,19)"/>
<path d="M0 0 C76.56 0 153.12 0 232 0 C227.52224765 6.71662853 227.52224765 6.71662853 224.765625 9.18359375 C223.90517578 9.98700195 223.90517578 9.98700195 223.02734375 10.80664062 C221.83586985 11.89991613 220.63516747 12.98321324 219.42578125 14.05664062 C216.23440739 17.07071594 215.07092464 18.19365434 214.671875 22.73046875 C214.78015625 23.80941406 214.8884375 24.88835937 215 26 C214 28.875 214 28.875 212 31 C207.19790555 32.55991603 204.56056751 32.28028376 200 30 C197.03 31.98 194.06 33.96 191 36 C189 35 187 34 185 33 C180.196341 32.60311649 177.1862737 33.55940203 172.875 35.625 C136.86873055 51.93720553 93.74989272 52.82436517 56.78515625 39.18261719 C35.46322676 30.89406452 14.40268105 18.00335131 0 0 Z " fill="#7B5139" transform="translate(145,256)"/>
<path d="M0 0 C5.28 0 10.56 0 16 0 C16.12117188 1.16015625 16.24234375 2.3203125 16.3671875 3.515625 C18.21002644 21.04864334 18.21002644 21.04864334 22.4375 38.125 C22.64286377 38.77750732 22.84822754 39.43001465 23.05981445 40.10229492 C24.26286468 43.65682571 24.77581919 44.85054612 28 47 C30.31 47.66 32.62 48.32 35 49 C37.31 53.95 39.62 58.9 42 64 C30.12 64 18.24 64 6 64 C3.69229067 44.38447071 3.69229067 44.38447071 2.9296875 36.328125 C2.84373322 35.43180359 2.75777893 34.53548218 2.66921997 33.61199951 C2.49192366 31.75737269 2.31555596 29.90265686 2.14013672 28.04785156 C1.87133041 25.21127673 1.59791231 22.3751695 1.32421875 19.5390625 C1.15076773 17.71877608 0.97758059 15.8984645 0.8046875 14.078125 C0.72346649 13.23856262 0.64224548 12.39900024 0.55856323 11.53399658 C0.48493561 10.74837341 0.41130798 9.96275024 0.33544922 9.15332031 C0.27042206 8.46957336 0.2053949 7.78582642 0.13839722 7.08135986 C-0.01824201 4.72565783 0 2.36090405 0 0 Z " fill="#CACACA" transform="translate(81,176)"/>
<path d="M0 0 C5.28 0 10.56 0 16 0 C16.11223402 7.26042292 15.70465376 14.30234352 14.94140625 21.51953125 C14.77849342 23.11192879 14.77849342 23.11192879 14.61228943 24.73649597 C14.38349091 26.96284332 14.15226136 29.18894207 13.91870117 31.41479492 C13.561758 34.81957778 13.21288913 38.2251168 12.86523438 41.63085938 C12.6410961 43.80213202 12.41650269 45.97335773 12.19140625 48.14453125 C12.08719864 49.15916946 11.98299103 50.17380768 11.87562561 51.2191925 C11.77559738 52.16755478 11.67556915 53.11591705 11.57250977 54.09301758 C11.48590591 54.92223221 11.39930206 55.75144684 11.31007385 56.60578918 C10.9885797 59.08818097 10.49090291 61.54548543 10 64 C1.09 64 -7.82 64 -17 64 C-15.4325 60.16375 -13.865 56.3275 -12.25 52.375 C-5.23606968 34.963738 -1.11588437 18.78405348 0 0 Z " fill="#CACACA" transform="translate(415,176)"/>
<path d="M0 0 C4.09206332 1.808121 6.69807584 4.16345973 9 8 C9.67086404 12.15935707 9.97444376 14.45217928 7.71875 18.03515625 C4.42230417 21.96988449 2.55948182 23.81497673 -2.6875 24.4375 C-7.19692446 24.40458449 -9.42486187 22.5829862 -12.65234375 19.60546875 C-14.71006082 17.15410146 -15.0156376 14.88383497 -15.4375 11.75 C-14.8560227 6.76590888 -12.62718402 4.32648483 -9 1 C-5.93570224 -0.53214888 -3.3834358 -0.22938548 0 0 Z " fill="#E4D8BB" transform="translate(159,416)"/>
<path d="M0 0 C4.09206332 1.808121 6.69807584 4.16345973 9 8 C9.67086404 12.15935707 9.97444376 14.45217928 7.71875 18.03515625 C4.42230417 21.96988449 2.55948182 23.81497673 -2.6875 24.4375 C-7.19692446 24.40458449 -9.42486187 22.5829862 -12.65234375 19.60546875 C-14.71006082 17.15410146 -15.0156376 14.88383497 -15.4375 11.75 C-14.8560227 6.76590888 -12.62718402 4.32648483 -9 1 C-5.93570224 -0.53214888 -3.3834358 -0.22938548 0 0 Z " fill="#E4D8BB" transform="translate(351,408)"/>
<path d="M0 0 C4.09206332 1.808121 6.69807584 4.16345973 9 8 C9.67086404 12.15935707 9.97444376 14.45217928 7.71875 18.03515625 C4.42230417 21.96988449 2.55948182 23.81497673 -2.6875 24.4375 C-7.19692446 24.40458449 -9.42486187 22.5829862 -12.65234375 19.60546875 C-14.71006082 17.15410146 -15.0156376 14.88383497 -15.4375 11.75 C-14.8560227 6.76590888 -12.62718402 4.32648483 -9 1 C-5.93570224 -0.53214888 -3.3834358 -0.22938548 0 0 Z " fill="#E4D8BB" transform="translate(359,192)"/>
<path d="M0 0 C3.209381 1.53175002 5.70326101 3.29086312 8 6 C9.24032748 10.19199287 9.49950912 13.85112902 7.75 17.875 C4.27398015 22.09588125 2.37533371 23.68024354 -3.25 24.4375 C-8.1843364 23.86182742 -10.79803186 21.71753928 -14 18 C-15.23534045 14.29397865 -15.45528745 11.90246386 -15 8 C-10.91704021 1.64314568 -7.65816344 -0.51919752 0 0 Z " fill="#7C523A" transform="translate(375,320)"/>
<path d="M0 0 C3.209381 1.53175002 5.70326101 3.29086312 8 6 C9.24032748 10.19199287 9.49950912 13.85112902 7.75 17.875 C4.27398015 22.09588125 2.37533371 23.68024354 -3.25 24.4375 C-8.1843364 23.86182742 -10.79803186 21.71753928 -14 18 C-15.23534045 14.29397865 -15.45528745 11.90246386 -15 8 C-10.91704021 1.64314568 -7.65816344 -0.51919752 0 0 Z " fill="#7C523A" transform="translate(135,296)"/>
<path d="M0 0 C4.0743356 0.84881992 5.54405875 2.30225596 8 5.625 C8.625 8.625 8.625 8.625 8 11.625 C5.54405875 14.94774404 4.0743356 16.40118008 0 17.25 C-4.0743356 16.40118008 -5.54405875 14.94774404 -8 11.625 C-8.625 8.625 -8.625 8.625 -8 5.625 C-5.54405875 2.30225596 -4.0743356 0.84881992 0 0 Z " fill="#7C523B" transform="translate(328,327.375)"/>
<path d="M0 0 C2.57682379 0.53582347 3.80870067 1.01227323 5.9375 2.625 C7.33775188 6.26565488 7.02186429 9.36268439 5.875 13.0625 C3.66503464 15.6817182 2.30377241 15.98951746 -1.0625 16.5625 C-5.23911135 15.88060427 -6.63415752 14.43246335 -9.125 11.0625 C-9.75 8.0625 -9.75 8.0625 -9.125 5.0625 C-6.50620524 1.2161452 -4.62486834 -0.35838463 0 0 Z " fill="#E4D7BA" transform="translate(193.125,391.9375)"/>
<path d="M0 0 C2.57682379 0.53582347 3.80870067 1.01227323 5.9375 2.625 C7.33775188 6.26565488 7.02186429 9.36268439 5.875 13.0625 C3.66503464 15.6817182 2.30377241 15.98951746 -1.0625 16.5625 C-5.23911135 15.88060427 -6.63415752 14.43246335 -9.125 11.0625 C-9.75 8.0625 -9.75 8.0625 -9.125 5.0625 C-6.50620524 1.2161452 -4.62486834 -0.35838463 0 0 Z " fill="#E4D7BA" transform="translate(321.125,199.9375)"/>
<path d="M0 0 C2.0625 1.5625 2.0625 1.5625 3 4 C3.17821261 6.85140177 2.92914963 9.292848 2 12 C-0.93837168 14.85194898 -2.53597436 15 -6.625 15 C-10 14 -10 14 -12 11.875 C-13.30782688 8.11499772 -13.06090617 5.81926223 -12 2 C-8.81688665 -2.07438508 -4.54417813 -1.38635943 0 0 Z " fill="#282726" transform="translate(357,273)"/>
</svg>
